<svg width="200" height="300" viewBox="0 0 200 300" fill="none" xmlns="http://www.w3.org/2000/svg">
<path d="M0 0H200V300H0V0Z" fill="#C4C4C4"/>
<path d="M148.317 94V104.169H138.561V94H128.805V114.339H70.2683V94H60.5122V104.169H50.7561V94H41V205.864H50.7561V195.695H60.5122V205.864H70.2683V185.525H128.805V205.864H138.561V195.695H148.317V205.864H158.073V94H148.317ZM60.5122 185.525H50.7561V175.356H60.5122V185.525ZM60.5122 165.186H50.7561V155.017H60.5122V165.186ZM60.5122 144.847H50.7561V134.678H60.5122V144.847ZM60.5122 124.508H50.7561V114.339H60.5122V124.508ZM128.805 170.271H70.2683V129.593H128.805V170.271ZM148.317 185.525H138.561V175.356H148.317V185.525ZM148.317 165.186H138.561V155.017H148.317V165.186ZM148.317 144.847H138.561V134.678H148.317V144.847ZM148.317 124.508H138.561V114.339H148.317V124.508Z" fill="#CC8925"/>
</svg>
