<svg width="118" height="112" viewBox="0 0 118 112" fill="none" xmlns="http://www.w3.org/2000/svg">
<path d="M107.317 0V10.1695H97.561V0H87.8049V20.339H29.2683V0H19.5122V10.1695H9.7561V0H0V111.864H9.7561V101.695H19.5122V111.864H29.2683V91.5254H87.8049V111.864H97.561V101.695H107.317V111.864H117.073V0H107.317ZM19.5122 91.5254H9.7561V81.3559H19.5122V91.5254ZM19.5122 71.1864H9.7561V61.017H19.5122V71.1864ZM19.5122 50.8475H9.7561V40.678H19.5122V50.8475ZM19.5122 30.5085H9.7561V20.339H19.5122V30.5085ZM87.8049 76.2712H29.2683V35.5932H87.8049V76.2712ZM107.317 91.5254H97.561V81.3559H107.317V91.5254ZM107.317 71.1864H97.561V61.017H107.317V71.1864ZM107.317 50.8475H97.561V40.678H107.317V50.8475ZM107.317 30.5085H97.561V20.339H107.317V30.5085Z" fill="#CC8925"/>
</svg>
